<svg width="1920" height="60" viewBox="0 0 1920 60" fill="none" xmlns="http://www.w3.org/2000/svg">
<g clip-path="url(#clip0_2809_39041)">
<g clip-path="url(#clip1_2809_39041)">
<g opacity="0.5">
<g opacity="0.5">
<path d="M20 0H20.5V-0.5H20V0ZM20 20V20.5H20.5V20H20ZM0 0.5H20V-0.5H0V0.5ZM19.5 0V20H20.5V0H19.5ZM20 19.5H0V20.5H20V19.5Z" fill="#2C2C2C"/>
</g>
<g opacity="0.5">
<rect x="20" width="20" height="20" stroke="#2C2C2C"/>
</g>
<g opacity="0.5">
<rect x="40" width="20" height="20" stroke="#2C2C2C"/>
</g>
</g>
<g opacity="0.5">
<g opacity="0.5">
<path d="M20 20H20.5V19.5H20V20ZM20 40V40.5H20.5V40H20ZM0 20.5H20V19.5H0V20.5ZM19.5 20V40H20.5V20H19.5ZM20 39.5H0V40.5H20V39.5Z" fill="#2C2C2C"/>
</g>
<g opacity="0.5">
<rect x="20" y="20" width="20" height="20" stroke="#2C2C2C"/>
</g>
<g opacity="0.5">
<rect x="40" y="20" width="20" height="20" stroke="#2C2C2C"/>
</g>
</g>
<g opacity="0.5">
<g opacity="0.5">
<path d="M20 40H20.5V39.5H20V40ZM0 40.5H20V39.5H0V40.5ZM19.5 40V60H20.5V40H19.5Z" fill="#2C2C2C"/>
</g>
<g opacity="0.5">
<path d="M20 40V39.5H19.5V40H20ZM40 40H40.5V39.5H40V40ZM20 40.5H40V39.5H20V40.5ZM39.5 40V60H40.5V40H39.5ZM20.5 60V40H19.5V60H20.5Z" fill="#2C2C2C"/>
</g>
<g opacity="0.5">
<rect x="40" y="40" width="20" height="20" stroke="#2C2C2C"/>
</g>
</g>
</g>
<path d="M60 0H60.5V-0.5H60V0ZM60 60V60.5H60.5V60H60ZM0 0.5H60V-0.5H0V0.5ZM59.5 0V60H60.5V0H59.5ZM60 59.5H0V60.5H60V59.5Z" fill="#2C2C2C"/>
<g clip-path="url(#clip2_2809_39041)">
<g opacity="0.5">
<g opacity="0.5">
<path d="M80 0H80.5V-0.5H80V0ZM80 20V20.5H80.5V20H80ZM60 0.5H80V-0.5H60V0.5ZM79.5 0V20H80.5V0H79.5ZM80 19.5H60V20.5H80V19.5Z" fill="#2C2C2C"/>
</g>
<g opacity="0.5">
<rect x="80" width="20" height="20" stroke="#2C2C2C"/>
</g>
<g opacity="0.5">
<rect x="100" width="20" height="20" stroke="#2C2C2C"/>
</g>
</g>
<g opacity="0.5">
<g opacity="0.5">
<path d="M80 20H80.5V19.5H80V20ZM80 40V40.5H80.5V40H80ZM60 20.5H80V19.5H60V20.5ZM79.5 20V40H80.5V20H79.5ZM80 39.5H60V40.5H80V39.5Z" fill="#2C2C2C"/>
</g>
<g opacity="0.5">
<rect x="80" y="20" width="20" height="20" stroke="#2C2C2C"/>
</g>
<g opacity="0.5">
<rect x="100" y="20" width="20" height="20" stroke="#2C2C2C"/>
</g>
</g>
<g opacity="0.5">
<g opacity="0.5">
<path d="M80 40H80.5V39.5H80V40ZM60 40.5H80V39.5H60V40.5ZM79.5 40V60H80.5V40H79.5Z" fill="#2C2C2C"/>
</g>
<g opacity="0.5">
<path d="M80 40V39.5H79.5V40H80ZM100 40H100.5V39.5H100V40ZM80 40.5H100V39.5H80V40.5ZM99.5 40V60H100.5V40H99.5ZM80.5 60V40H79.5V60H80.5Z" fill="#2C2C2C"/>
</g>
<g opacity="0.5">
<rect x="100" y="40" width="20" height="20" stroke="#2C2C2C"/>
</g>
</g>
</g>
<rect x="60" width="60" height="60" stroke="#2C2C2C"/>
<g clip-path="url(#clip3_2809_39041)">
<g opacity="0.5">
<g opacity="0.5">
<path d="M140 0H140.5V-0.5H140V0ZM140 20V20.5H140.5V20H140ZM120 0.5H140V-0.5H120V0.5ZM139.5 0V20H140.5V0H139.5ZM140 19.5H120V20.5H140V19.5Z" fill="#2C2C2C"/>
</g>
<g opacity="0.5">
<rect x="140" width="20" height="20" stroke="#2C2C2C"/>
</g>
<g opacity="0.5">
<rect x="160" width="20" height="20" stroke="#2C2C2C"/>
</g>
</g>
<g opacity="0.5">
<g opacity="0.5">
<path d="M140 20H140.5V19.5H140V20ZM140 40V40.5H140.5V40H140ZM120 20.5H140V19.5H120V20.5ZM139.5 20V40H140.5V20H139.5ZM140 39.5H120V40.5H140V39.5Z" fill="#2C2C2C"/>
</g>
<g opacity="0.5">
<rect x="140" y="20" width="20" height="20" stroke="#2C2C2C"/>
</g>
<g opacity="0.5">
<rect x="160" y="20" width="20" height="20" stroke="#2C2C2C"/>
</g>
</g>
<g opacity="0.5">
<g opacity="0.5">
<path d="M140 40H140.5V39.5H140V40ZM120 40.5H140V39.5H120V40.5ZM139.5 40V60H140.5V40H139.5Z" fill="#2C2C2C"/>
</g>
<g opacity="0.5">
<path d="M140 40V39.5H139.5V40H140ZM160 40H160.5V39.5H160V40ZM140 40.5H160V39.5H140V40.5ZM159.5 40V60H160.5V40H159.5ZM140.5 60V40H139.5V60H140.5Z" fill="#2C2C2C"/>
</g>
<g opacity="0.5">
<rect x="160" y="40" width="20" height="20" stroke="#2C2C2C"/>
</g>
</g>
</g>
<rect x="120" width="60" height="60" stroke="#2C2C2C"/>
<g clip-path="url(#clip4_2809_39041)">
<g opacity="0.5">
<g opacity="0.5">
<path d="M200 0H200.5V-0.5H200V0ZM200 20V20.5H200.5V20H200ZM180 0.5H200V-0.5H180V0.5ZM199.5 0V20H200.5V0H199.5ZM200 19.5H180V20.5H200V19.5Z" fill="#2C2C2C"/>
</g>
<g opacity="0.5">
<rect x="200" width="20" height="20" stroke="#2C2C2C"/>
</g>
<g opacity="0.5">
<rect x="220" width="20" height="20" stroke="#2C2C2C"/>
</g>
</g>
<g opacity="0.5">
<g opacity="0.5">
<path d="M200 20H200.5V19.5H200V20ZM200 40V40.5H200.5V40H200ZM180 20.5H200V19.5H180V20.5ZM199.5 20V40H200.5V20H199.5ZM200 39.5H180V40.5H200V39.5Z" fill="#2C2C2C"/>
</g>
<g opacity="0.5">
<rect x="200" y="20" width="20" height="20" stroke="#2C2C2C"/>
</g>
<g opacity="0.5">
<rect x="220" y="20" width="20" height="20" stroke="#2C2C2C"/>
</g>
</g>
<g opacity="0.5">
<g opacity="0.5">
<path d="M200 40H200.5V39.5H200V40ZM180 40.5H200V39.5H180V40.5ZM199.5 40V60H200.5V40H199.5Z" fill="#2C2C2C"/>
</g>
<g opacity="0.5">
<path d="M200 40V39.5H199.5V40H200ZM220 40H220.5V39.5H220V40ZM200 40.5H220V39.5H200V40.5ZM219.5 40V60H220.5V40H219.5ZM200.5 60V40H199.5V60H200.5Z" fill="#2C2C2C"/>
</g>
<g opacity="0.5">
<rect x="220" y="40" width="20" height="20" stroke="#2C2C2C"/>
</g>
</g>
</g>
<rect x="180" width="60" height="60" stroke="#2C2C2C"/>
<g clip-path="url(#clip5_2809_39041)">
<g opacity="0.5">
<g opacity="0.5">
<path d="M260 0H260.5V-0.5H260V0ZM260 20V20.5H260.5V20H260ZM240 0.5H260V-0.5H240V0.5ZM259.5 0V20H260.5V0H259.5ZM260 19.5H240V20.5H260V19.5Z" fill="#2C2C2C"/>
</g>
<g opacity="0.5">
<rect x="260" width="20" height="20" stroke="#2C2C2C"/>
</g>
<g opacity="0.5">
<rect x="280" width="20" height="20" stroke="#2C2C2C"/>
</g>
</g>
<g opacity="0.5">
<g opacity="0.5">
<path d="M260 20H260.5V19.5H260V20ZM260 40V40.5H260.5V40H260ZM240 20.5H260V19.5H240V20.5ZM259.5 20V40H260.5V20H259.5ZM260 39.5H240V40.5H260V39.5Z" fill="#2C2C2C"/>
</g>
<g opacity="0.5">
<rect x="260" y="20" width="20" height="20" stroke="#2C2C2C"/>
</g>
<g opacity="0.5">
<rect x="280" y="20" width="20" height="20" stroke="#2C2C2C"/>
</g>
</g>
<g opacity="0.5">
<g opacity="0.5">
<path d="M260 40H260.5V39.5H260V40ZM240 40.5H260V39.5H240V40.5ZM259.5 40V60H260.5V40H259.5Z" fill="#2C2C2C"/>
</g>
<g opacity="0.5">
<path d="M260 40V39.5H259.5V40H260ZM280 40H280.5V39.5H280V40ZM260 40.5H280V39.5H260V40.5ZM279.5 40V60H280.5V40H279.5ZM260.5 60V40H259.5V60H260.5Z" fill="#2C2C2C"/>
</g>
<g opacity="0.5">
<rect x="280" y="40" width="20" height="20" stroke="#2C2C2C"/>
</g>
</g>
</g>
<rect x="240" width="60" height="60" stroke="#2C2C2C"/>
<g clip-path="url(#clip6_2809_39041)">
<g opacity="0.5">
<g opacity="0.5">
<path d="M320 0H320.5V-0.5H320V0ZM320 20V20.5H320.5V20H320ZM300 0.5H320V-0.5H300V0.5ZM319.5 0V20H320.5V0H319.5ZM320 19.5H300V20.5H320V19.5Z" fill="#2C2C2C"/>
</g>
<g opacity="0.5">
<rect x="320" width="20" height="20" stroke="#2C2C2C"/>
</g>
<g opacity="0.5">
<rect x="340" width="20" height="20" stroke="#2C2C2C"/>
</g>
</g>
<g opacity="0.5">
<g opacity="0.5">
<path d="M320 20H320.5V19.5H320V20ZM320 40V40.5H320.5V40H320ZM300 20.5H320V19.5H300V20.5ZM319.5 20V40H320.5V20H319.5ZM320 39.5H300V40.5H320V39.5Z" fill="#2C2C2C"/>
</g>
<g opacity="0.5">
<rect x="320" y="20" width="20" height="20" stroke="#2C2C2C"/>
</g>
<g opacity="0.5">
<rect x="340" y="20" width="20" height="20" stroke="#2C2C2C"/>
</g>
</g>
<g opacity="0.5">
<g opacity="0.5">
<path d="M320 40H320.5V39.5H320V40ZM300 40.5H320V39.5H300V40.5ZM319.5 40V60H320.5V40H319.5Z" fill="#2C2C2C"/>
</g>
<g opacity="0.5">
<path d="M320 40V39.5H319.5V40H320ZM340 40H340.5V39.5H340V40ZM320 40.5H340V39.5H320V40.5ZM339.5 40V60H340.5V40H339.5ZM320.5 60V40H319.5V60H320.5Z" fill="#2C2C2C"/>
</g>
<g opacity="0.5">
<rect x="340" y="40" width="20" height="20" stroke="#2C2C2C"/>
</g>
</g>
</g>
<rect x="300" width="60" height="60" stroke="#2C2C2C"/>
<g clip-path="url(#clip7_2809_39041)">
<g opacity="0.5">
<g opacity="0.5">
<path d="M380 0H380.5V-0.5H380V0ZM380 20V20.5H380.5V20H380ZM360 0.5H380V-0.5H360V0.5ZM379.5 0V20H380.5V0H379.5ZM380 19.5H360V20.5H380V19.5Z" fill="#2C2C2C"/>
</g>
<g opacity="0.5">
<rect x="380" width="20" height="20" stroke="#2C2C2C"/>
</g>
<g opacity="0.5">
<rect x="400" width="20" height="20" stroke="#2C2C2C"/>
</g>
</g>
<g opacity="0.5">
<g opacity="0.5">
<path d="M380 20H380.5V19.5H380V20ZM380 40V40.5H380.5V40H380ZM360 20.5H380V19.5H360V20.5ZM379.5 20V40H380.5V20H379.5ZM380 39.5H360V40.5H380V39.5Z" fill="#2C2C2C"/>
</g>
<g opacity="0.5">
<rect x="380" y="20" width="20" height="20" stroke="#2C2C2C"/>
</g>
<g opacity="0.5">
<rect x="400" y="20" width="20" height="20" stroke="#2C2C2C"/>
</g>
</g>
<g opacity="0.5">
<g opacity="0.5">
<path d="M380 40H380.5V39.5H380V40ZM360 40.5H380V39.5H360V40.5ZM379.5 40V60H380.5V40H379.5Z" fill="#2C2C2C"/>
</g>
<g opacity="0.5">
<path d="M380 40V39.5H379.5V40H380ZM400 40H400.5V39.5H400V40ZM380 40.5H400V39.5H380V40.5ZM399.5 40V60H400.5V40H399.5ZM380.5 60V40H379.5V60H380.5Z" fill="#2C2C2C"/>
</g>
<g opacity="0.5">
<rect x="400" y="40" width="20" height="20" stroke="#2C2C2C"/>
</g>
</g>
</g>
<rect x="360" width="60" height="60" stroke="#2C2C2C"/>
<g clip-path="url(#clip8_2809_39041)">
<g opacity="0.5">
<g opacity="0.5">
<path d="M440 0H440.5V-0.5H440V0ZM440 20V20.5H440.5V20H440ZM420 0.5H440V-0.5H420V0.5ZM439.5 0V20H440.5V0H439.5ZM440 19.5H420V20.5H440V19.5Z" fill="#2C2C2C"/>
</g>
<g opacity="0.5">
<rect x="440" width="20" height="20" stroke="#2C2C2C"/>
</g>
<g opacity="0.5">
<rect x="460" width="20" height="20" stroke="#2C2C2C"/>
</g>
</g>
<g opacity="0.5">
<g opacity="0.5">
<path d="M440 20H440.5V19.5H440V20ZM440 40V40.5H440.5V40H440ZM420 20.5H440V19.5H420V20.5ZM439.5 20V40H440.5V20H439.5ZM440 39.5H420V40.5H440V39.5Z" fill="#2C2C2C"/>
</g>
<g opacity="0.5">
<rect x="440" y="20" width="20" height="20" stroke="#2C2C2C"/>
</g>
<g opacity="0.5">
<rect x="460" y="20" width="20" height="20" stroke="#2C2C2C"/>
</g>
</g>
<g opacity="0.5">
<g opacity="0.5">
<path d="M440 40H440.5V39.5H440V40ZM420 40.5H440V39.5H420V40.5ZM439.5 40V60H440.5V40H439.5Z" fill="#2C2C2C"/>
</g>
<g opacity="0.5">
<path d="M440 40V39.5H439.5V40H440ZM460 40H460.5V39.5H460V40ZM440 40.5H460V39.5H440V40.5ZM459.5 40V60H460.5V40H459.5ZM440.5 60V40H439.5V60H440.5Z" fill="#2C2C2C"/>
</g>
<g opacity="0.5">
<rect x="460" y="40" width="20" height="20" stroke="#2C2C2C"/>
</g>
</g>
</g>
<rect x="420" width="60" height="60" stroke="#2C2C2C"/>
<g clip-path="url(#clip9_2809_39041)">
<g opacity="0.5">
<g opacity="0.5">
<path d="M500 0H500.5V-0.5H500V0ZM500 20V20.5H500.5V20H500ZM480 0.5H500V-0.5H480V0.5ZM499.5 0V20H500.5V0H499.5ZM500 19.5H480V20.5H500V19.5Z" fill="#2C2C2C"/>
</g>
<g opacity="0.5">
<rect x="500" width="20" height="20" stroke="#2C2C2C"/>
</g>
<g opacity="0.5">
<rect x="520" width="20" height="20" stroke="#2C2C2C"/>
</g>
</g>
<g opacity="0.5">
<g opacity="0.5">
<path d="M500 20H500.5V19.5H500V20ZM500 40V40.5H500.5V40H500ZM480 20.5H500V19.5H480V20.5ZM499.5 20V40H500.5V20H499.5ZM500 39.5H480V40.5H500V39.5Z" fill="#2C2C2C"/>
</g>
<g opacity="0.5">
<rect x="500" y="20" width="20" height="20" stroke="#2C2C2C"/>
</g>
<g opacity="0.5">
<rect x="520" y="20" width="20" height="20" stroke="#2C2C2C"/>
</g>
</g>
<g opacity="0.5">
<g opacity="0.5">
<path d="M500 40H500.5V39.5H500V40ZM480 40.5H500V39.5H480V40.5ZM499.5 40V60H500.5V40H499.5Z" fill="#2C2C2C"/>
</g>
<g opacity="0.5">
<path d="M500 40V39.5H499.5V40H500ZM520 40H520.5V39.5H520V40ZM500 40.5H520V39.5H500V40.5ZM519.5 40V60H520.5V40H519.5ZM500.5 60V40H499.5V60H500.5Z" fill="#2C2C2C"/>
</g>
<g opacity="0.5">
<rect x="520" y="40" width="20" height="20" stroke="#2C2C2C"/>
</g>
</g>
</g>
<rect x="480" width="60" height="60" stroke="#2C2C2C"/>
<g clip-path="url(#clip10_2809_39041)">
<g opacity="0.5">
<g opacity="0.5">
<path d="M560 0H560.5V-0.5H560V0ZM560 20V20.5H560.5V20H560ZM540 0.5H560V-0.5H540V0.5ZM559.5 0V20H560.5V0H559.5ZM560 19.5H540V20.5H560V19.5Z" fill="#2C2C2C"/>
</g>
<g opacity="0.5">
<rect x="560" width="20" height="20" stroke="#2C2C2C"/>
</g>
<g opacity="0.5">
<rect x="580" width="20" height="20" stroke="#2C2C2C"/>
</g>
</g>
<g opacity="0.5">
<g opacity="0.5">
<path d="M560 20H560.5V19.5H560V20ZM560 40V40.5H560.5V40H560ZM540 20.5H560V19.5H540V20.5ZM559.5 20V40H560.5V20H559.5ZM560 39.5H540V40.5H560V39.5Z" fill="#2C2C2C"/>
</g>
<g opacity="0.5">
<rect x="560" y="20" width="20" height="20" stroke="#2C2C2C"/>
</g>
<g opacity="0.5">
<rect x="580" y="20" width="20" height="20" stroke="#2C2C2C"/>
</g>
</g>
<g opacity="0.5">
<g opacity="0.5">
<path d="M560 40H560.5V39.5H560V40ZM540 40.5H560V39.5H540V40.5ZM559.5 40V60H560.5V40H559.5Z" fill="#2C2C2C"/>
</g>
<g opacity="0.5">
<path d="M560 40V39.5H559.5V40H560ZM580 40H580.5V39.5H580V40ZM560 40.5H580V39.5H560V40.5ZM579.5 40V60H580.5V40H579.5ZM560.5 60V40H559.5V60H560.5Z" fill="#2C2C2C"/>
</g>
<g opacity="0.5">
<rect x="580" y="40" width="20" height="20" stroke="#2C2C2C"/>
</g>
</g>
</g>
<rect x="540" width="60" height="60" stroke="#2C2C2C"/>
<g clip-path="url(#clip11_2809_39041)">
<g opacity="0.5">
<g opacity="0.5">
<path d="M620 0H620.5V-0.5H620V0ZM620 20V20.5H620.5V20H620ZM600 0.5H620V-0.5H600V0.5ZM619.5 0V20H620.5V0H619.5ZM620 19.5H600V20.5H620V19.5Z" fill="#2C2C2C"/>
</g>
<g opacity="0.5">
<rect x="620" width="20" height="20" stroke="#2C2C2C"/>
</g>
<g opacity="0.5">
<rect x="640" width="20" height="20" stroke="#2C2C2C"/>
</g>
</g>
<g opacity="0.5">
<g opacity="0.5">
<path d="M620 20H620.5V19.5H620V20ZM620 40V40.5H620.5V40H620ZM600 20.5H620V19.5H600V20.5ZM619.5 20V40H620.5V20H619.5ZM620 39.5H600V40.5H620V39.5Z" fill="#2C2C2C"/>
</g>
<g opacity="0.5">
<rect x="620" y="20" width="20" height="20" stroke="#2C2C2C"/>
</g>
<g opacity="0.5">
<rect x="640" y="20" width="20" height="20" stroke="#2C2C2C"/>
</g>
</g>
<g opacity="0.5">
<g opacity="0.5">
<path d="M620 40H620.5V39.5H620V40ZM600 40.5H620V39.5H600V40.5ZM619.5 40V60H620.5V40H619.5Z" fill="#2C2C2C"/>
</g>
<g opacity="0.5">
<path d="M620 40V39.5H619.5V40H620ZM640 40H640.5V39.5H640V40ZM620 40.5H640V39.5H620V40.5ZM639.5 40V60H640.5V40H639.5ZM620.5 60V40H619.5V60H620.5Z" fill="#2C2C2C"/>
</g>
<g opacity="0.5">
<rect x="640" y="40" width="20" height="20" stroke="#2C2C2C"/>
</g>
</g>
</g>
<rect x="600" width="60" height="60" stroke="#2C2C2C"/>
<g clip-path="url(#clip12_2809_39041)">
<g opacity="0.5">
<g opacity="0.5">
<path d="M680 0H680.5V-0.5H680V0ZM680 20V20.5H680.5V20H680ZM660 0.5H680V-0.5H660V0.5ZM679.5 0V20H680.5V0H679.5ZM680 19.5H660V20.5H680V19.5Z" fill="#2C2C2C"/>
</g>
<g opacity="0.5">
<rect x="680" width="20" height="20" stroke="#2C2C2C"/>
</g>
<g opacity="0.5">
<rect x="700" width="20" height="20" stroke="#2C2C2C"/>
</g>
</g>
<g opacity="0.5">
<g opacity="0.5">
<path d="M680 20H680.5V19.5H680V20ZM680 40V40.5H680.5V40H680ZM660 20.5H680V19.5H660V20.5ZM679.5 20V40H680.5V20H679.5ZM680 39.5H660V40.5H680V39.5Z" fill="#2C2C2C"/>
</g>
<g opacity="0.5">
<rect x="680" y="20" width="20" height="20" stroke="#2C2C2C"/>
</g>
<g opacity="0.5">
<rect x="700" y="20" width="20" height="20" stroke="#2C2C2C"/>
</g>
</g>
<g opacity="0.5">
<g opacity="0.5">
<path d="M680 40H680.5V39.5H680V40ZM660 40.5H680V39.5H660V40.5ZM679.5 40V60H680.5V40H679.5Z" fill="#2C2C2C"/>
</g>
<g opacity="0.5">
<path d="M680 40V39.5H679.5V40H680ZM700 40H700.5V39.5H700V40ZM680 40.5H700V39.5H680V40.5ZM699.5 40V60H700.5V40H699.5ZM680.5 60V40H679.5V60H680.5Z" fill="#2C2C2C"/>
</g>
<g opacity="0.5">
<rect x="700" y="40" width="20" height="20" stroke="#2C2C2C"/>
</g>
</g>
</g>
<rect x="660" width="60" height="60" stroke="#2C2C2C"/>
<g clip-path="url(#clip13_2809_39041)">
<g opacity="0.5">
<g opacity="0.5">
<path d="M740 0H740.5V-0.5H740V0ZM740 20V20.5H740.5V20H740ZM720 0.5H740V-0.5H720V0.5ZM739.5 0V20H740.5V0H739.5ZM740 19.5H720V20.5H740V19.5Z" fill="#2C2C2C"/>
</g>
<g opacity="0.5">
<rect x="740" width="20" height="20" stroke="#2C2C2C"/>
</g>
<g opacity="0.5">
<rect x="760" width="20" height="20" stroke="#2C2C2C"/>
</g>
</g>
<g opacity="0.5">
<g opacity="0.5">
<path d="M740 20H740.5V19.5H740V20ZM740 40V40.5H740.5V40H740ZM720 20.5H740V19.5H720V20.5ZM739.5 20V40H740.5V20H739.5ZM740 39.5H720V40.5H740V39.5Z" fill="#2C2C2C"/>
</g>
<g opacity="0.5">
<rect x="740" y="20" width="20" height="20" stroke="#2C2C2C"/>
</g>
<g opacity="0.5">
<rect x="760" y="20" width="20" height="20" stroke="#2C2C2C"/>
</g>
</g>
<g opacity="0.5">
<g opacity="0.5">
<path d="M740 40H740.5V39.5H740V40ZM720 40.5H740V39.5H720V40.5ZM739.5 40V60H740.5V40H739.5Z" fill="#2C2C2C"/>
</g>
<g opacity="0.5">
<path d="M740 40V39.5H739.5V40H740ZM760 40H760.5V39.5H760V40ZM740 40.5H760V39.5H740V40.5ZM759.5 40V60H760.5V40H759.5ZM740.5 60V40H739.5V60H740.5Z" fill="#2C2C2C"/>
</g>
<g opacity="0.5">
<rect x="760" y="40" width="20" height="20" stroke="#2C2C2C"/>
</g>
</g>
</g>
<rect x="720" width="60" height="60" stroke="#2C2C2C"/>
<g clip-path="url(#clip14_2809_39041)">
<g opacity="0.5">
<g opacity="0.5">
<path d="M800 0H800.5V-0.5H800V0ZM800 20V20.5H800.5V20H800ZM780 0.5H800V-0.5H780V0.5ZM799.5 0V20H800.5V0H799.5ZM800 19.5H780V20.5H800V19.5Z" fill="#2C2C2C"/>
</g>
<g opacity="0.5">
<rect x="800" width="20" height="20" stroke="#2C2C2C"/>
</g>
<g opacity="0.5">
<rect x="820" width="20" height="20" stroke="#2C2C2C"/>
</g>
</g>
<g opacity="0.5">
<g opacity="0.5">
<path d="M800 20H800.5V19.5H800V20ZM800 40V40.5H800.5V40H800ZM780 20.5H800V19.5H780V20.5ZM799.5 20V40H800.5V20H799.5ZM800 39.5H780V40.5H800V39.5Z" fill="#2C2C2C"/>
</g>
<g opacity="0.5">
<rect x="800" y="20" width="20" height="20" stroke="#2C2C2C"/>
</g>
<g opacity="0.5">
<rect x="820" y="20" width="20" height="20" stroke="#2C2C2C"/>
</g>
</g>
<g opacity="0.5">
<g opacity="0.5">
<path d="M800 40H800.5V39.5H800V40ZM780 40.5H800V39.5H780V40.5ZM799.5 40V60H800.5V40H799.5Z" fill="#2C2C2C"/>
</g>
<g opacity="0.5">
<path d="M800 40V39.5H799.5V40H800ZM820 40H820.5V39.5H820V40ZM800 40.5H820V39.5H800V40.5ZM819.5 40V60H820.5V40H819.5ZM800.5 60V40H799.5V60H800.5Z" fill="#2C2C2C"/>
</g>
<g opacity="0.5">
<rect x="820" y="40" width="20" height="20" stroke="#2C2C2C"/>
</g>
</g>
</g>
<rect x="780" width="60" height="60" stroke="#2C2C2C"/>
<g clip-path="url(#clip15_2809_39041)">
<g opacity="0.5">
<g opacity="0.5">
<path d="M860 0H860.5V-0.5H860V0ZM860 20V20.5H860.5V20H860ZM840 0.5H860V-0.5H840V0.5ZM859.5 0V20H860.5V0H859.5ZM860 19.5H840V20.5H860V19.5Z" fill="#2C2C2C"/>
</g>
<g opacity="0.5">
<rect x="860" width="20" height="20" stroke="#2C2C2C"/>
</g>
<g opacity="0.5">
<rect x="880" width="20" height="20" stroke="#2C2C2C"/>
</g>
</g>
<g opacity="0.5">
<g opacity="0.5">
<path d="M860 20H860.5V19.5H860V20ZM860 40V40.5H860.5V40H860ZM840 20.5H860V19.5H840V20.5ZM859.5 20V40H860.5V20H859.5ZM860 39.5H840V40.5H860V39.5Z" fill="#2C2C2C"/>
</g>
<g opacity="0.5">
<rect x="860" y="20" width="20" height="20" stroke="#2C2C2C"/>
</g>
<g opacity="0.5">
<rect x="880" y="20" width="20" height="20" stroke="#2C2C2C"/>
</g>
</g>
<g opacity="0.5">
<g opacity="0.5">
<path d="M860 40H860.5V39.5H860V40ZM840 40.5H860V39.5H840V40.5ZM859.5 40V60H860.5V40H859.5Z" fill="#2C2C2C"/>
</g>
<g opacity="0.5">
<path d="M860 40V39.5H859.5V40H860ZM880 40H880.5V39.5H880V40ZM860 40.5H880V39.5H860V40.5ZM879.5 40V60H880.5V40H879.5ZM860.5 60V40H859.5V60H860.5Z" fill="#2C2C2C"/>
</g>
<g opacity="0.5">
<rect x="880" y="40" width="20" height="20" stroke="#2C2C2C"/>
</g>
</g>
</g>
<rect x="840" width="60" height="60" stroke="#2C2C2C"/>
<g clip-path="url(#clip16_2809_39041)">
<g opacity="0.5">
<g opacity="0.5">
<path d="M920 0H920.5V-0.5H920V0ZM920 20V20.5H920.5V20H920ZM900 0.5H920V-0.5H900V0.5ZM919.5 0V20H920.5V0H919.5ZM920 19.5H900V20.5H920V19.5Z" fill="#2C2C2C"/>
</g>
<g opacity="0.5">
<rect x="920" width="20" height="20" stroke="#2C2C2C"/>
</g>
<g opacity="0.5">
<rect x="940" width="20" height="20" stroke="#2C2C2C"/>
</g>
</g>
<g opacity="0.5">
<g opacity="0.5">
<path d="M920 20H920.5V19.5H920V20ZM920 40V40.5H920.5V40H920ZM900 20.5H920V19.5H900V20.5ZM919.5 20V40H920.5V20H919.5ZM920 39.5H900V40.5H920V39.5Z" fill="#2C2C2C"/>
</g>
<g opacity="0.5">
<rect x="920" y="20" width="20" height="20" stroke="#2C2C2C"/>
</g>
<g opacity="0.5">
<rect x="940" y="20" width="20" height="20" stroke="#2C2C2C"/>
</g>
</g>
<g opacity="0.5">
<g opacity="0.5">
<path d="M920 40H920.5V39.5H920V40ZM900 40.5H920V39.5H900V40.5ZM919.5 40V60H920.5V40H919.5Z" fill="#2C2C2C"/>
</g>
<g opacity="0.5">
<path d="M920 40V39.5H919.5V40H920ZM940 40H940.5V39.5H940V40ZM920 40.5H940V39.5H920V40.5ZM939.5 40V60H940.5V40H939.5ZM920.5 60V40H919.5V60H920.5Z" fill="#2C2C2C"/>
</g>
<g opacity="0.5">
<rect x="940" y="40" width="20" height="20" stroke="#2C2C2C"/>
</g>
</g>
</g>
<rect x="900" width="60" height="60" stroke="#2C2C2C"/>
<g clip-path="url(#clip17_2809_39041)">
<g opacity="0.5">
<g opacity="0.5">
<path d="M980 0H980.5V-0.5H980V0ZM980 20V20.5H980.5V20H980ZM960 0.5H980V-0.5H960V0.5ZM979.5 0V20H980.5V0H979.5ZM980 19.5H960V20.5H980V19.5Z" fill="#2C2C2C"/>
</g>
<g opacity="0.5">
<rect x="980" width="20" height="20" stroke="#2C2C2C"/>
</g>
<g opacity="0.5">
<rect x="1000" width="20" height="20" stroke="#2C2C2C"/>
</g>
</g>
<g opacity="0.5">
<g opacity="0.5">
<path d="M980 20H980.5V19.5H980V20ZM980 40V40.5H980.5V40H980ZM960 20.5H980V19.5H960V20.5ZM979.5 20V40H980.5V20H979.5ZM980 39.5H960V40.5H980V39.5Z" fill="#2C2C2C"/>
</g>
<g opacity="0.5">
<rect x="980" y="20" width="20" height="20" stroke="#2C2C2C"/>
</g>
<g opacity="0.5">
<rect x="1000" y="20" width="20" height="20" stroke="#2C2C2C"/>
</g>
</g>
<g opacity="0.5">
<g opacity="0.5">
<path d="M980 40H980.5V39.5H980V40ZM960 40.5H980V39.5H960V40.5ZM979.5 40V60H980.5V40H979.5Z" fill="#2C2C2C"/>
</g>
<g opacity="0.5">
<path d="M980 40V39.5H979.5V40H980ZM1000 40H1000.5V39.5H1000V40ZM980 40.5H1000V39.5H980V40.5ZM999.5 40V60H1000.5V40H999.5ZM980.5 60V40H979.5V60H980.5Z" fill="#2C2C2C"/>
</g>
<g opacity="0.5">
<rect x="1000" y="40" width="20" height="20" stroke="#2C2C2C"/>
</g>
</g>
</g>
<rect x="960" width="60" height="60" stroke="#2C2C2C"/>
<g clip-path="url(#clip18_2809_39041)">
<g opacity="0.5">
<g opacity="0.5">
<path d="M1040 0H1040.5V-0.5H1040V0ZM1040 20V20.5H1040.5V20H1040ZM1020 0.5H1040V-0.5H1020V0.5ZM1039.5 0V20H1040.5V0H1039.5ZM1040 19.5H1020V20.5H1040V19.5Z" fill="#2C2C2C"/>
</g>
<g opacity="0.5">
<rect x="1040" width="20" height="20" stroke="#2C2C2C"/>
</g>
<g opacity="0.5">
<rect x="1060" width="20" height="20" stroke="#2C2C2C"/>
</g>
</g>
<g opacity="0.5">
<g opacity="0.5">
<path d="M1040 20H1040.5V19.5H1040V20ZM1040 40V40.5H1040.5V40H1040ZM1020 20.5H1040V19.5H1020V20.5ZM1039.5 20V40H1040.5V20H1039.5ZM1040 39.5H1020V40.5H1040V39.5Z" fill="#2C2C2C"/>
</g>
<g opacity="0.5">
<rect x="1040" y="20" width="20" height="20" stroke="#2C2C2C"/>
</g>
<g opacity="0.5">
<rect x="1060" y="20" width="20" height="20" stroke="#2C2C2C"/>
</g>
</g>
<g opacity="0.5">
<g opacity="0.5">
<path d="M1040 40H1040.5V39.5H1040V40ZM1020 40.5H1040V39.5H1020V40.5ZM1039.5 40V60H1040.5V40H1039.5Z" fill="#2C2C2C"/>
</g>
<g opacity="0.5">
<path d="M1040 40V39.5H1039.5V40H1040ZM1060 40H1060.5V39.5H1060V40ZM1040 40.5H1060V39.5H1040V40.5ZM1059.5 40V60H1060.5V40H1059.5ZM1040.5 60V40H1039.5V60H1040.5Z" fill="#2C2C2C"/>
</g>
<g opacity="0.5">
<rect x="1060" y="40" width="20" height="20" stroke="#2C2C2C"/>
</g>
</g>
</g>
<rect x="1020" width="60" height="60" stroke="#2C2C2C"/>
<g clip-path="url(#clip19_2809_39041)">
<g opacity="0.5">
<g opacity="0.5">
<path d="M1100 0H1100.5V-0.5H1100V0ZM1100 20V20.5H1100.5V20H1100ZM1080 0.5H1100V-0.5H1080V0.5ZM1099.5 0V20H1100.5V0H1099.5ZM1100 19.5H1080V20.5H1100V19.5Z" fill="#2C2C2C"/>
</g>
<g opacity="0.5">
<rect x="1100" width="20" height="20" stroke="#2C2C2C"/>
</g>
<g opacity="0.5">
<rect x="1120" width="20" height="20" stroke="#2C2C2C"/>
</g>
</g>
<g opacity="0.5">
<g opacity="0.5">
<path d="M1100 20H1100.5V19.5H1100V20ZM1100 40V40.5H1100.5V40H1100ZM1080 20.5H1100V19.5H1080V20.5ZM1099.5 20V40H1100.5V20H1099.5ZM1100 39.5H1080V40.5H1100V39.5Z" fill="#2C2C2C"/>
</g>
<g opacity="0.5">
<rect x="1100" y="20" width="20" height="20" stroke="#2C2C2C"/>
</g>
<g opacity="0.5">
<rect x="1120" y="20" width="20" height="20" stroke="#2C2C2C"/>
</g>
</g>
<g opacity="0.5">
<g opacity="0.5">
<path d="M1100 40H1100.5V39.5H1100V40ZM1080 40.5H1100V39.5H1080V40.5ZM1099.5 40V60H1100.5V40H1099.5Z" fill="#2C2C2C"/>
</g>
<g opacity="0.5">
<path d="M1100 40V39.5H1099.5V40H1100ZM1120 40H1120.5V39.5H1120V40ZM1100 40.5H1120V39.5H1100V40.5ZM1119.5 40V60H1120.5V40H1119.5ZM1100.5 60V40H1099.5V60H1100.5Z" fill="#2C2C2C"/>
</g>
<g opacity="0.5">
<rect x="1120" y="40" width="20" height="20" stroke="#2C2C2C"/>
</g>
</g>
</g>
<rect x="1080" width="60" height="60" stroke="#2C2C2C"/>
<g clip-path="url(#clip20_2809_39041)">
<g opacity="0.5">
<g opacity="0.5">
<path d="M1160 0H1160.5V-0.5H1160V0ZM1160 20V20.5H1160.5V20H1160ZM1140 0.5H1160V-0.5H1140V0.5ZM1159.5 0V20H1160.5V0H1159.5ZM1160 19.5H1140V20.5H1160V19.5Z" fill="#2C2C2C"/>
</g>
<g opacity="0.5">
<rect x="1160" width="20" height="20" stroke="#2C2C2C"/>
</g>
<g opacity="0.5">
<rect x="1180" width="20" height="20" stroke="#2C2C2C"/>
</g>
</g>
<g opacity="0.5">
<g opacity="0.5">
<path d="M1160 20H1160.5V19.5H1160V20ZM1160 40V40.5H1160.5V40H1160ZM1140 20.5H1160V19.5H1140V20.5ZM1159.5 20V40H1160.5V20H1159.5ZM1160 39.5H1140V40.5H1160V39.5Z" fill="#2C2C2C"/>
</g>
<g opacity="0.5">
<rect x="1160" y="20" width="20" height="20" stroke="#2C2C2C"/>
</g>
<g opacity="0.5">
<rect x="1180" y="20" width="20" height="20" stroke="#2C2C2C"/>
</g>
</g>
<g opacity="0.5">
<g opacity="0.5">
<path d="M1160 40H1160.5V39.5H1160V40ZM1140 40.5H1160V39.5H1140V40.5ZM1159.5 40V60H1160.5V40H1159.5Z" fill="#2C2C2C"/>
</g>
<g opacity="0.5">
<path d="M1160 40V39.5H1159.5V40H1160ZM1180 40H1180.5V39.5H1180V40ZM1160 40.5H1180V39.5H1160V40.5ZM1179.5 40V60H1180.5V40H1179.5ZM1160.5 60V40H1159.5V60H1160.5Z" fill="#2C2C2C"/>
</g>
<g opacity="0.5">
<rect x="1180" y="40" width="20" height="20" stroke="#2C2C2C"/>
</g>
</g>
</g>
<rect x="1140" width="60" height="60" stroke="#2C2C2C"/>
<g clip-path="url(#clip21_2809_39041)">
<g opacity="0.5">
<g opacity="0.5">
<path d="M1220 0H1220.5V-0.5H1220V0ZM1220 20V20.5H1220.5V20H1220ZM1200 0.5H1220V-0.5H1200V0.5ZM1219.5 0V20H1220.5V0H1219.5ZM1220 19.5H1200V20.5H1220V19.5Z" fill="#2C2C2C"/>
</g>
<g opacity="0.5">
<rect x="1220" width="20" height="20" stroke="#2C2C2C"/>
</g>
<g opacity="0.5">
<rect x="1240" width="20" height="20" stroke="#2C2C2C"/>
</g>
</g>
<g opacity="0.5">
<g opacity="0.5">
<path d="M1220 20H1220.5V19.5H1220V20ZM1220 40V40.5H1220.5V40H1220ZM1200 20.5H1220V19.5H1200V20.5ZM1219.5 20V40H1220.5V20H1219.5ZM1220 39.5H1200V40.5H1220V39.5Z" fill="#2C2C2C"/>
</g>
<g opacity="0.5">
<rect x="1220" y="20" width="20" height="20" stroke="#2C2C2C"/>
</g>
<g opacity="0.5">
<rect x="1240" y="20" width="20" height="20" stroke="#2C2C2C"/>
</g>
</g>
<g opacity="0.5">
<g opacity="0.5">
<path d="M1220 40H1220.5V39.5H1220V40ZM1200 40.5H1220V39.5H1200V40.5ZM1219.5 40V60H1220.5V40H1219.5Z" fill="#2C2C2C"/>
</g>
<g opacity="0.5">
<path d="M1220 40V39.5H1219.5V40H1220ZM1240 40H1240.5V39.5H1240V40ZM1220 40.5H1240V39.5H1220V40.5ZM1239.5 40V60H1240.5V40H1239.5ZM1220.5 60V40H1219.5V60H1220.5Z" fill="#2C2C2C"/>
</g>
<g opacity="0.5">
<rect x="1240" y="40" width="20" height="20" stroke="#2C2C2C"/>
</g>
</g>
</g>
<rect x="1200" width="60" height="60" stroke="#2C2C2C"/>
<g clip-path="url(#clip22_2809_39041)">
<g opacity="0.5">
<g opacity="0.5">
<path d="M1280 0H1280.5V-0.5H1280V0ZM1280 20V20.5H1280.5V20H1280ZM1260 0.5H1280V-0.5H1260V0.5ZM1279.5 0V20H1280.5V0H1279.5ZM1280 19.5H1260V20.5H1280V19.5Z" fill="#2C2C2C"/>
</g>
<g opacity="0.5">
<rect x="1280" width="20" height="20" stroke="#2C2C2C"/>
</g>
<g opacity="0.5">
<rect x="1300" width="20" height="20" stroke="#2C2C2C"/>
</g>
</g>
<g opacity="0.5">
<g opacity="0.5">
<path d="M1280 20H1280.5V19.5H1280V20ZM1280 40V40.5H1280.5V40H1280ZM1260 20.5H1280V19.5H1260V20.5ZM1279.5 20V40H1280.5V20H1279.5ZM1280 39.5H1260V40.5H1280V39.5Z" fill="#2C2C2C"/>
</g>
<g opacity="0.5">
<rect x="1280" y="20" width="20" height="20" stroke="#2C2C2C"/>
</g>
<g opacity="0.5">
<rect x="1300" y="20" width="20" height="20" stroke="#2C2C2C"/>
</g>
</g>
<g opacity="0.5">
<g opacity="0.5">
<path d="M1280 40H1280.5V39.5H1280V40ZM1260 40.5H1280V39.5H1260V40.5ZM1279.5 40V60H1280.5V40H1279.5Z" fill="#2C2C2C"/>
</g>
<g opacity="0.5">
<path d="M1280 40V39.5H1279.5V40H1280ZM1300 40H1300.5V39.5H1300V40ZM1280 40.5H1300V39.5H1280V40.5ZM1299.5 40V60H1300.5V40H1299.5ZM1280.5 60V40H1279.5V60H1280.5Z" fill="#2C2C2C"/>
</g>
<g opacity="0.5">
<rect x="1300" y="40" width="20" height="20" stroke="#2C2C2C"/>
</g>
</g>
</g>
<rect x="1260" width="60" height="60" stroke="#2C2C2C"/>
<g clip-path="url(#clip23_2809_39041)">
<g opacity="0.5">
<g opacity="0.5">
<path d="M1340 0H1340.5V-0.5H1340V0ZM1340 20V20.5H1340.5V20H1340ZM1320 0.5H1340V-0.5H1320V0.5ZM1339.5 0V20H1340.5V0H1339.5ZM1340 19.5H1320V20.5H1340V19.5Z" fill="#2C2C2C"/>
</g>
<g opacity="0.5">
<rect x="1340" width="20" height="20" stroke="#2C2C2C"/>
</g>
<g opacity="0.5">
<rect x="1360" width="20" height="20" stroke="#2C2C2C"/>
</g>
</g>
<g opacity="0.5">
<g opacity="0.5">
<path d="M1340 20H1340.5V19.5H1340V20ZM1340 40V40.5H1340.5V40H1340ZM1320 20.5H1340V19.5H1320V20.5ZM1339.5 20V40H1340.5V20H1339.5ZM1340 39.5H1320V40.5H1340V39.5Z" fill="#2C2C2C"/>
</g>
<g opacity="0.5">
<rect x="1340" y="20" width="20" height="20" stroke="#2C2C2C"/>
</g>
<g opacity="0.5">
<rect x="1360" y="20" width="20" height="20" stroke="#2C2C2C"/>
</g>
</g>
<g opacity="0.5">
<g opacity="0.5">
<path d="M1340 40H1340.5V39.5H1340V40ZM1320 40.5H1340V39.5H1320V40.5ZM1339.5 40V60H1340.5V40H1339.5Z" fill="#2C2C2C"/>
</g>
<g opacity="0.5">
<path d="M1340 40V39.5H1339.5V40H1340ZM1360 40H1360.5V39.5H1360V40ZM1340 40.5H1360V39.5H1340V40.5ZM1359.5 40V60H1360.5V40H1359.5ZM1340.5 60V40H1339.5V60H1340.5Z" fill="#2C2C2C"/>
</g>
<g opacity="0.5">
<rect x="1360" y="40" width="20" height="20" stroke="#2C2C2C"/>
</g>
</g>
</g>
<rect x="1320" width="60" height="60" stroke="#2C2C2C"/>
<g clip-path="url(#clip24_2809_39041)">
<g opacity="0.5">
<g opacity="0.5">
<path d="M1400 0H1400.5V-0.5H1400V0ZM1400 20V20.5H1400.5V20H1400ZM1380 0.5H1400V-0.5H1380V0.5ZM1399.5 0V20H1400.5V0H1399.5ZM1400 19.5H1380V20.5H1400V19.5Z" fill="#2C2C2C"/>
</g>
<g opacity="0.5">
<rect x="1400" width="20" height="20" stroke="#2C2C2C"/>
</g>
<g opacity="0.5">
<rect x="1420" width="20" height="20" stroke="#2C2C2C"/>
</g>
</g>
<g opacity="0.5">
<g opacity="0.5">
<path d="M1400 20H1400.5V19.5H1400V20ZM1400 40V40.5H1400.5V40H1400ZM1380 20.5H1400V19.5H1380V20.5ZM1399.5 20V40H1400.5V20H1399.5ZM1400 39.5H1380V40.5H1400V39.5Z" fill="#2C2C2C"/>
</g>
<g opacity="0.5">
<rect x="1400" y="20" width="20" height="20" stroke="#2C2C2C"/>
</g>
<g opacity="0.5">
<rect x="1420" y="20" width="20" height="20" stroke="#2C2C2C"/>
</g>
</g>
<g opacity="0.5">
<g opacity="0.5">
<path d="M1400 40H1400.5V39.5H1400V40ZM1380 40.5H1400V39.5H1380V40.5ZM1399.5 40V60H1400.5V40H1399.5Z" fill="#2C2C2C"/>
</g>
<g opacity="0.5">
<path d="M1400 40V39.5H1399.5V40H1400ZM1420 40H1420.5V39.5H1420V40ZM1400 40.5H1420V39.5H1400V40.5ZM1419.5 40V60H1420.5V40H1419.5ZM1400.5 60V40H1399.5V60H1400.5Z" fill="#2C2C2C"/>
</g>
<g opacity="0.5">
<rect x="1420" y="40" width="20" height="20" stroke="#2C2C2C"/>
</g>
</g>
</g>
<rect x="1380" width="60" height="60" stroke="#2C2C2C"/>
<g clip-path="url(#clip25_2809_39041)">
<g opacity="0.5">
<g opacity="0.5">
<path d="M1460 0H1460.5V-0.5H1460V0ZM1460 20V20.5H1460.5V20H1460ZM1440 0.5H1460V-0.5H1440V0.5ZM1459.5 0V20H1460.5V0H1459.5ZM1460 19.5H1440V20.5H1460V19.5Z" fill="#2C2C2C"/>
</g>
<g opacity="0.5">
<rect x="1460" width="20" height="20" stroke="#2C2C2C"/>
</g>
<g opacity="0.5">
<rect x="1480" width="20" height="20" stroke="#2C2C2C"/>
</g>
</g>
<g opacity="0.5">
<g opacity="0.5">
<path d="M1460 20H1460.5V19.5H1460V20ZM1460 40V40.5H1460.5V40H1460ZM1440 20.5H1460V19.5H1440V20.5ZM1459.5 20V40H1460.5V20H1459.5ZM1460 39.5H1440V40.5H1460V39.5Z" fill="#2C2C2C"/>
</g>
<g opacity="0.5">
<rect x="1460" y="20" width="20" height="20" stroke="#2C2C2C"/>
</g>
<g opacity="0.5">
<rect x="1480" y="20" width="20" height="20" stroke="#2C2C2C"/>
</g>
</g>
<g opacity="0.5">
<g opacity="0.5">
<path d="M1460 40H1460.5V39.5H1460V40ZM1440 40.5H1460V39.5H1440V40.5ZM1459.5 40V60H1460.5V40H1459.5Z" fill="#2C2C2C"/>
</g>
<g opacity="0.5">
<path d="M1460 40V39.5H1459.5V40H1460ZM1480 40H1480.5V39.5H1480V40ZM1460 40.5H1480V39.5H1460V40.5ZM1479.5 40V60H1480.5V40H1479.5ZM1460.5 60V40H1459.5V60H1460.5Z" fill="#2C2C2C"/>
</g>
<g opacity="0.5">
<rect x="1480" y="40" width="20" height="20" stroke="#2C2C2C"/>
</g>
</g>
</g>
<rect x="1440" width="60" height="60" stroke="#2C2C2C"/>
<g clip-path="url(#clip26_2809_39041)">
<g opacity="0.5">
<g opacity="0.5">
<path d="M1520 0H1520.5V-0.5H1520V0ZM1520 20V20.5H1520.5V20H1520ZM1500 0.5H1520V-0.5H1500V0.5ZM1519.5 0V20H1520.5V0H1519.5ZM1520 19.5H1500V20.5H1520V19.5Z" fill="#2C2C2C"/>
</g>
<g opacity="0.5">
<rect x="1520" width="20" height="20" stroke="#2C2C2C"/>
</g>
<g opacity="0.5">
<rect x="1540" width="20" height="20" stroke="#2C2C2C"/>
</g>
</g>
<g opacity="0.5">
<g opacity="0.5">
<path d="M1520 20H1520.5V19.5H1520V20ZM1520 40V40.5H1520.5V40H1520ZM1500 20.5H1520V19.5H1500V20.5ZM1519.5 20V40H1520.5V20H1519.5ZM1520 39.5H1500V40.5H1520V39.5Z" fill="#2C2C2C"/>
</g>
<g opacity="0.5">
<rect x="1520" y="20" width="20" height="20" stroke="#2C2C2C"/>
</g>
<g opacity="0.5">
<rect x="1540" y="20" width="20" height="20" stroke="#2C2C2C"/>
</g>
</g>
<g opacity="0.5">
<g opacity="0.5">
<path d="M1520 40H1520.5V39.5H1520V40ZM1500 40.5H1520V39.5H1500V40.5ZM1519.5 40V60H1520.5V40H1519.5Z" fill="#2C2C2C"/>
</g>
<g opacity="0.5">
<path d="M1520 40V39.5H1519.5V40H1520ZM1540 40H1540.5V39.5H1540V40ZM1520 40.5H1540V39.5H1520V40.5ZM1539.5 40V60H1540.5V40H1539.5ZM1520.5 60V40H1519.5V60H1520.5Z" fill="#2C2C2C"/>
</g>
<g opacity="0.5">
<rect x="1540" y="40" width="20" height="20" stroke="#2C2C2C"/>
</g>
</g>
</g>
<rect x="1500" width="60" height="60" stroke="#2C2C2C"/>
<g clip-path="url(#clip27_2809_39041)">
<g opacity="0.5">
<g opacity="0.5">
<path d="M1580 0H1580.5V-0.5H1580V0ZM1580 20V20.5H1580.5V20H1580ZM1560 0.5H1580V-0.5H1560V0.5ZM1579.5 0V20H1580.5V0H1579.5ZM1580 19.5H1560V20.5H1580V19.5Z" fill="#2C2C2C"/>
</g>
<g opacity="0.5">
<rect x="1580" width="20" height="20" stroke="#2C2C2C"/>
</g>
<g opacity="0.5">
<rect x="1600" width="20" height="20" stroke="#2C2C2C"/>
</g>
</g>
<g opacity="0.5">
<g opacity="0.5">
<path d="M1580 20H1580.5V19.5H1580V20ZM1580 40V40.5H1580.5V40H1580ZM1560 20.5H1580V19.5H1560V20.5ZM1579.5 20V40H1580.5V20H1579.5ZM1580 39.5H1560V40.5H1580V39.5Z" fill="#2C2C2C"/>
</g>
<g opacity="0.5">
<rect x="1580" y="20" width="20" height="20" stroke="#2C2C2C"/>
</g>
<g opacity="0.5">
<rect x="1600" y="20" width="20" height="20" stroke="#2C2C2C"/>
</g>
</g>
<g opacity="0.5">
<g opacity="0.5">
<path d="M1580 40H1580.5V39.5H1580V40ZM1560 40.5H1580V39.5H1560V40.5ZM1579.5 40V60H1580.5V40H1579.5Z" fill="#2C2C2C"/>
</g>
<g opacity="0.5">
<path d="M1580 40V39.5H1579.5V40H1580ZM1600 40H1600.5V39.5H1600V40ZM1580 40.5H1600V39.5H1580V40.5ZM1599.5 40V60H1600.5V40H1599.5ZM1580.5 60V40H1579.5V60H1580.5Z" fill="#2C2C2C"/>
</g>
<g opacity="0.5">
<rect x="1600" y="40" width="20" height="20" stroke="#2C2C2C"/>
</g>
</g>
</g>
<rect x="1560" width="60" height="60" stroke="#2C2C2C"/>
<g clip-path="url(#clip28_2809_39041)">
<g opacity="0.5">
<g opacity="0.5">
<path d="M1640 0H1640.5V-0.5H1640V0ZM1640 20V20.5H1640.5V20H1640ZM1620 0.5H1640V-0.5H1620V0.5ZM1639.5 0V20H1640.5V0H1639.5ZM1640 19.5H1620V20.5H1640V19.5Z" fill="#2C2C2C"/>
</g>
<g opacity="0.5">
<rect x="1640" width="20" height="20" stroke="#2C2C2C"/>
</g>
<g opacity="0.5">
<rect x="1660" width="20" height="20" stroke="#2C2C2C"/>
</g>
</g>
<g opacity="0.5">
<g opacity="0.5">
<path d="M1640 20H1640.5V19.5H1640V20ZM1640 40V40.5H1640.5V40H1640ZM1620 20.5H1640V19.5H1620V20.5ZM1639.5 20V40H1640.5V20H1639.5ZM1640 39.5H1620V40.5H1640V39.5Z" fill="#2C2C2C"/>
</g>
<g opacity="0.5">
<rect x="1640" y="20" width="20" height="20" stroke="#2C2C2C"/>
</g>
<g opacity="0.5">
<rect x="1660" y="20" width="20" height="20" stroke="#2C2C2C"/>
</g>
</g>
<g opacity="0.5">
<g opacity="0.5">
<path d="M1640 40H1640.5V39.5H1640V40ZM1620 40.5H1640V39.5H1620V40.5ZM1639.5 40V60H1640.5V40H1639.5Z" fill="#2C2C2C"/>
</g>
<g opacity="0.5">
<path d="M1640 40V39.5H1639.5V40H1640ZM1660 40H1660.5V39.5H1660V40ZM1640 40.5H1660V39.5H1640V40.5ZM1659.5 40V60H1660.5V40H1659.5ZM1640.5 60V40H1639.5V60H1640.5Z" fill="#2C2C2C"/>
</g>
<g opacity="0.5">
<rect x="1660" y="40" width="20" height="20" stroke="#2C2C2C"/>
</g>
</g>
</g>
<rect x="1620" width="60" height="60" stroke="#2C2C2C"/>
<g clip-path="url(#clip29_2809_39041)">
<g opacity="0.5">
<g opacity="0.5">
<path d="M1700 0H1700.5V-0.5H1700V0ZM1700 20V20.5H1700.5V20H1700ZM1680 0.5H1700V-0.5H1680V0.5ZM1699.5 0V20H1700.5V0H1699.5ZM1700 19.5H1680V20.5H1700V19.5Z" fill="#2C2C2C"/>
</g>
<g opacity="0.5">
<rect x="1700" width="20" height="20" stroke="#2C2C2C"/>
</g>
<g opacity="0.5">
<rect x="1720" width="20" height="20" stroke="#2C2C2C"/>
</g>
</g>
<g opacity="0.5">
<g opacity="0.5">
<path d="M1700 20H1700.5V19.5H1700V20ZM1700 40V40.5H1700.5V40H1700ZM1680 20.5H1700V19.5H1680V20.5ZM1699.5 20V40H1700.5V20H1699.5ZM1700 39.5H1680V40.5H1700V39.5Z" fill="#2C2C2C"/>
</g>
<g opacity="0.5">
<rect x="1700" y="20" width="20" height="20" stroke="#2C2C2C"/>
</g>
<g opacity="0.5">
<rect x="1720" y="20" width="20" height="20" stroke="#2C2C2C"/>
</g>
</g>
<g opacity="0.5">
<g opacity="0.5">
<path d="M1700 40H1700.5V39.5H1700V40ZM1680 40.5H1700V39.5H1680V40.5ZM1699.5 40V60H1700.5V40H1699.5Z" fill="#2C2C2C"/>
</g>
<g opacity="0.5">
<path d="M1700 40V39.5H1699.5V40H1700ZM1720 40H1720.5V39.5H1720V40ZM1700 40.5H1720V39.5H1700V40.5ZM1719.5 40V60H1720.5V40H1719.5ZM1700.5 60V40H1699.5V60H1700.5Z" fill="#2C2C2C"/>
</g>
<g opacity="0.5">
<rect x="1720" y="40" width="20" height="20" stroke="#2C2C2C"/>
</g>
</g>
</g>
<rect x="1680" width="60" height="60" stroke="#2C2C2C"/>
<g clip-path="url(#clip30_2809_39041)">
<g opacity="0.5">
<g opacity="0.5">
<path d="M1760 0H1760.5V-0.5H1760V0ZM1760 20V20.5H1760.5V20H1760ZM1740 0.5H1760V-0.5H1740V0.5ZM1759.5 0V20H1760.5V0H1759.5ZM1760 19.5H1740V20.5H1760V19.5Z" fill="#2C2C2C"/>
</g>
<g opacity="0.5">
<rect x="1760" width="20" height="20" stroke="#2C2C2C"/>
</g>
<g opacity="0.5">
<rect x="1780" width="20" height="20" stroke="#2C2C2C"/>
</g>
</g>
<g opacity="0.5">
<g opacity="0.5">
<path d="M1760 20H1760.5V19.5H1760V20ZM1760 40V40.5H1760.5V40H1760ZM1740 20.5H1760V19.5H1740V20.5ZM1759.5 20V40H1760.5V20H1759.5ZM1760 39.5H1740V40.5H1760V39.5Z" fill="#2C2C2C"/>
</g>
<g opacity="0.5">
<rect x="1760" y="20" width="20" height="20" stroke="#2C2C2C"/>
</g>
<g opacity="0.5">
<rect x="1780" y="20" width="20" height="20" stroke="#2C2C2C"/>
</g>
</g>
<g opacity="0.5">
<g opacity="0.5">
<path d="M1760 40H1760.5V39.5H1760V40ZM1740 40.5H1760V39.5H1740V40.5ZM1759.5 40V60H1760.5V40H1759.5Z" fill="#2C2C2C"/>
</g>
<g opacity="0.5">
<path d="M1760 40V39.5H1759.5V40H1760ZM1780 40H1780.5V39.5H1780V40ZM1760 40.5H1780V39.5H1760V40.5ZM1779.5 40V60H1780.5V40H1779.5ZM1760.5 60V40H1759.5V60H1760.5Z" fill="#2C2C2C"/>
</g>
<g opacity="0.5">
<rect x="1780" y="40" width="20" height="20" stroke="#2C2C2C"/>
</g>
</g>
</g>
<rect x="1740" width="60" height="60" stroke="#2C2C2C"/>
<g clip-path="url(#clip31_2809_39041)">
<g opacity="0.5">
<g opacity="0.5">
<path d="M1820 0H1820.5V-0.5H1820V0ZM1820 20V20.5H1820.5V20H1820ZM1800 0.5H1820V-0.5H1800V0.5ZM1819.5 0V20H1820.5V0H1819.5ZM1820 19.5H1800V20.5H1820V19.5Z" fill="#2C2C2C"/>
</g>
<g opacity="0.5">
<rect x="1820" width="20" height="20" stroke="#2C2C2C"/>
</g>
<g opacity="0.5">
<rect x="1840" width="20" height="20" stroke="#2C2C2C"/>
</g>
</g>
<g opacity="0.5">
<g opacity="0.5">
<path d="M1820 20H1820.5V19.5H1820V20ZM1820 40V40.5H1820.5V40H1820ZM1800 20.5H1820V19.5H1800V20.5ZM1819.5 20V40H1820.5V20H1819.5ZM1820 39.5H1800V40.5H1820V39.5Z" fill="#2C2C2C"/>
</g>
<g opacity="0.5">
<rect x="1820" y="20" width="20" height="20" stroke="#2C2C2C"/>
</g>
<g opacity="0.5">
<rect x="1840" y="20" width="20" height="20" stroke="#2C2C2C"/>
</g>
</g>
<g opacity="0.5">
<g opacity="0.5">
<path d="M1820 40H1820.5V39.5H1820V40ZM1800 40.5H1820V39.5H1800V40.5ZM1819.5 40V60H1820.5V40H1819.5Z" fill="#2C2C2C"/>
</g>
<g opacity="0.5">
<path d="M1820 40V39.5H1819.5V40H1820ZM1840 40H1840.5V39.5H1840V40ZM1820 40.5H1840V39.5H1820V40.5ZM1839.5 40V60H1840.5V40H1839.5ZM1820.5 60V40H1819.5V60H1820.5Z" fill="#2C2C2C"/>
</g>
<g opacity="0.5">
<rect x="1840" y="40" width="20" height="20" stroke="#2C2C2C"/>
</g>
</g>
</g>
<rect x="1800" width="60" height="60" stroke="#2C2C2C"/>
<g clip-path="url(#clip32_2809_39041)">
<g opacity="0.5">
<g opacity="0.5">
<path d="M1900 0H1899.5V-0.5H1900V0ZM1900 20V20.5H1899.5V20H1900ZM1920 0.5H1900V-0.5H1920V0.5ZM1900.5 0V20H1899.5V0H1900.5ZM1900 19.5H1920V20.5H1900V19.5Z" fill="#2C2C2C"/>
</g>
<g opacity="0.5">
<rect width="20" height="20" transform="matrix(-1 0 0 1 1900 0)" stroke="#2C2C2C"/>
</g>
<g opacity="0.5">
<rect width="20" height="20" transform="matrix(-1 0 0 1 1880 0)" stroke="#2C2C2C"/>
</g>
</g>
<g opacity="0.5">
<g opacity="0.5">
<path d="M1900 20H1899.5V19.5H1900V20ZM1900 40V40.5H1899.5V40H1900ZM1920 20.5H1900V19.5H1920V20.5ZM1900.5 20V40H1899.5V20H1900.5ZM1900 39.5H1920V40.5H1900V39.5Z" fill="#2C2C2C"/>
</g>
<g opacity="0.5">
<rect width="20" height="20" transform="matrix(-1 0 0 1 1900 20)" stroke="#2C2C2C"/>
</g>
<g opacity="0.5">
<rect width="20" height="20" transform="matrix(-1 0 0 1 1880 20)" stroke="#2C2C2C"/>
</g>
</g>
<g opacity="0.5">
<g opacity="0.5">
<path d="M1900 40H1899.5V39.5H1900V40ZM1920 40.5H1900V39.5H1920V40.5ZM1900.5 40V60H1899.5V40H1900.5Z" fill="#2C2C2C"/>
</g>
<g opacity="0.5">
<path d="M1900 40V39.5H1900.5V40H1900ZM1880 40H1879.5V39.5H1880V40ZM1900 40.5H1880V39.5H1900V40.5ZM1880.5 40V60H1879.5V40H1880.5ZM1899.5 60V40H1900.5V60H1899.5Z" fill="#2C2C2C"/>
</g>
<g opacity="0.5">
<rect width="20" height="20" transform="matrix(-1 0 0 1 1880 40)" stroke="#2C2C2C"/>
</g>
</g>
</g>
<path d="M1860 0H1859.5V-0.5H1860V0ZM1860 60V60.5H1859.5V60H1860ZM1920 0.5H1860V-0.5H1920V0.5ZM1860.5 0V60H1859.5V0H1860.5ZM1860 59.5H1920V60.5H1860V59.5Z" fill="#2C2C2C"/>
</g>
<defs>
<clipPath id="clip0_2809_39041">
<rect width="1920" height="60" fill="white"/>
</clipPath>
<clipPath id="clip1_2809_39041">
<path d="M0 0H60V60H0V0Z" fill="white"/>
</clipPath>
<clipPath id="clip2_2809_39041">
<rect x="60" width="60" height="60" fill="white"/>
</clipPath>
<clipPath id="clip3_2809_39041">
<rect x="120" width="60" height="60" fill="white"/>
</clipPath>
<clipPath id="clip4_2809_39041">
<rect x="180" width="60" height="60" fill="white"/>
</clipPath>
<clipPath id="clip5_2809_39041">
<rect x="240" width="60" height="60" fill="white"/>
</clipPath>
<clipPath id="clip6_2809_39041">
<rect x="300" width="60" height="60" fill="white"/>
</clipPath>
<clipPath id="clip7_2809_39041">
<rect x="360" width="60" height="60" fill="white"/>
</clipPath>
<clipPath id="clip8_2809_39041">
<rect x="420" width="60" height="60" fill="white"/>
</clipPath>
<clipPath id="clip9_2809_39041">
<rect x="480" width="60" height="60" fill="white"/>
</clipPath>
<clipPath id="clip10_2809_39041">
<rect x="540" width="60" height="60" fill="white"/>
</clipPath>
<clipPath id="clip11_2809_39041">
<rect x="600" width="60" height="60" fill="white"/>
</clipPath>
<clipPath id="clip12_2809_39041">
<rect x="660" width="60" height="60" fill="white"/>
</clipPath>
<clipPath id="clip13_2809_39041">
<rect x="720" width="60" height="60" fill="white"/>
</clipPath>
<clipPath id="clip14_2809_39041">
<rect x="780" width="60" height="60" fill="white"/>
</clipPath>
<clipPath id="clip15_2809_39041">
<rect x="840" width="60" height="60" fill="white"/>
</clipPath>
<clipPath id="clip16_2809_39041">
<rect x="900" width="60" height="60" fill="white"/>
</clipPath>
<clipPath id="clip17_2809_39041">
<rect x="960" width="60" height="60" fill="white"/>
</clipPath>
<clipPath id="clip18_2809_39041">
<rect x="1020" width="60" height="60" fill="white"/>
</clipPath>
<clipPath id="clip19_2809_39041">
<rect x="1080" width="60" height="60" fill="white"/>
</clipPath>
<clipPath id="clip20_2809_39041">
<rect x="1140" width="60" height="60" fill="white"/>
</clipPath>
<clipPath id="clip21_2809_39041">
<rect x="1200" width="60" height="60" fill="white"/>
</clipPath>
<clipPath id="clip22_2809_39041">
<rect x="1260" width="60" height="60" fill="white"/>
</clipPath>
<clipPath id="clip23_2809_39041">
<rect x="1320" width="60" height="60" fill="white"/>
</clipPath>
<clipPath id="clip24_2809_39041">
<rect x="1380" width="60" height="60" fill="white"/>
</clipPath>
<clipPath id="clip25_2809_39041">
<rect x="1440" width="60" height="60" fill="white"/>
</clipPath>
<clipPath id="clip26_2809_39041">
<rect x="1500" width="60" height="60" fill="white"/>
</clipPath>
<clipPath id="clip27_2809_39041">
<rect x="1560" width="60" height="60" fill="white"/>
</clipPath>
<clipPath id="clip28_2809_39041">
<rect x="1620" width="60" height="60" fill="white"/>
</clipPath>
<clipPath id="clip29_2809_39041">
<rect x="1680" width="60" height="60" fill="white"/>
</clipPath>
<clipPath id="clip30_2809_39041">
<rect x="1740" width="60" height="60" fill="white"/>
</clipPath>
<clipPath id="clip31_2809_39041">
<rect x="1800" width="60" height="60" fill="white"/>
</clipPath>
<clipPath id="clip32_2809_39041">
<path d="M1920 0H1860V60H1920V0Z" fill="white"/>
</clipPath>
</defs>
</svg>
